<svg width="32" height="32" viewBox="0 0 32 32" fill="none" xmlns="http://www.w3.org/2000/svg">
<g clip-path="url(#clip0_7835_18866)">
<rect width="32" height="32" rx="4" fill="#FF5D2D"/>
<path d="M16.9594 16.8317V24.6397C16.9594 24.8957 17.2154 25.0237 17.4394 24.9277L23.6474 21.4077C24.2554 21.0557 24.6394 20.4157 24.6394 19.7117V12.7037C24.6394 12.4477 24.3834 12.3197 24.1594 12.4157L17.2794 16.2877C17.0874 16.4157 16.9594 16.6077 16.9594 16.8317ZM16.3194 14.6557L23.2314 10.7837C23.4554 10.6557 23.4554 10.3677 23.2314 10.2397L16.9914 6.68768C16.6898 6.51355 16.3476 6.42188 15.9994 6.42188C15.6511 6.42188 15.309 6.51355 15.0074 6.68768L8.76738 10.2397C8.54338 10.3677 8.54338 10.6557 8.76738 10.7837L15.6794 14.6557C15.8714 14.7517 16.1274 14.7517 16.3194 14.6557ZM14.7194 16.2877L7.83938 12.4157C7.61538 12.2877 7.35938 12.4477 7.35938 12.7037V19.6797C7.35938 20.3837 7.74338 21.0237 8.35138 21.3757L14.5594 24.8957C14.7834 25.0237 15.0394 24.8637 15.0394 24.6077V16.8317C15.0394 16.6077 14.9114 16.4157 14.7194 16.2877Z" fill="white"/>
</g>
<defs>
<clipPath id="clip0_7835_18866">
<path d="M0 16C0 7.16344 7.16344 0 16 0C24.8366 0 32 7.16344 32 16C32 24.8366 24.8366 32 16 32C7.16344 32 0 24.8366 0 16Z" fill="white"/>
</clipPath>
</defs>
</svg>
