<svg width="14" height="14" viewBox="0 0 14 14" fill="none" xmlns="http://www.w3.org/2000/svg">
<path d="M9.37963 7.32438L7.54708 8.23628C6.9965 8.51066 6.55118 8.9545 6.2759 9.50326L5.36097 11.3297C5.23142 11.5907 4.85627 11.5907 4.72673 11.3297L3.8118 9.50326C3.53651 8.9545 3.09119 8.51066 2.54062 8.23628L0.708064 7.32438C0.44627 7.19526 0.44627 6.82135 0.708064 6.69224L2.54062 5.78034C3.09119 5.50596 3.53651 5.06211 3.8118 4.51336L4.72673 2.68687C4.85627 2.42594 5.23142 2.42594 5.36097 2.68687L6.2759 4.51336C6.55118 5.06211 6.9965 5.50596 7.54708 5.78034L9.37963 6.69224C9.64142 6.82135 9.64142 7.19526 9.37963 7.32438ZM13.3767 11.3862L12.5913 10.9935C12.3538 10.8778 12.1649 10.6842 12.0461 10.4501L11.6521 9.66734C11.5981 9.55437 11.4362 9.55437 11.3795 9.66734L10.9855 10.4501C10.8694 10.6868 10.6751 10.8751 10.4403 10.9935L9.65492 11.3862C9.54157 11.44 9.54157 11.6014 9.65492 11.6579L10.4403 12.0507C10.6778 12.1663 10.8667 12.36 10.9855 12.594L11.3795 13.3768C11.4335 13.4898 11.5954 13.4898 11.6521 13.3768L12.0461 12.594C12.1622 12.3573 12.3565 12.169 12.5913 12.0507L13.3767 11.6579C13.4901 11.6041 13.4901 11.4427 13.3767 11.3862ZM13.3767 2.35062L12.5913 1.95789C12.3538 1.84222 12.1649 1.64854 12.0461 1.41451L11.6521 0.631731C11.5981 0.518752 11.4362 0.518752 11.3795 0.631731L10.9855 1.41451C10.8694 1.65123 10.6751 1.83953 10.4403 1.95789L9.65492 2.35062C9.54157 2.40442 9.54157 2.56582 9.65492 2.62231L10.4403 3.01505C10.6778 3.13071 10.8667 3.32439 10.9855 3.55842L11.3795 4.3412C11.4335 4.45418 11.5954 4.45418 11.6521 4.3412L12.0461 3.55842C12.1622 3.3217 12.3565 3.1334 12.5913 3.01505L13.3767 2.62231C13.4901 2.56851 13.4901 2.40711 13.3767 2.35062Z" fill="#0250D9"/>
</svg>
